<svg xmlns="http://www.w3.org/2000/svg" xmlns:xlink="http://www.w3.org/1999/xlink" width="24" height="24" viewBox="0 0 24 24">
    <defs>
        <path id="a" d="M6.5 7a1.001 1.001 0 0 1 0-2 1.001 1.001 0 0 1 0 2m0-7C10.084 0 13 2.692 13 6c0 2.884-2.591 10-6.5 10S0 8.884 0 6c0-3.308 2.916-6 6.5-6zm0 14C8.57 14 11 8.713 11 6c0-2.205-2.019-4-4.5-4S2 3.796 2 6c0 2.713 2.43 8 4.5 8zm0-11c1.654 0 3 1.346 3 3s-1.346 3-3 3-3-1.346-3-3 1.346-3 3-3z"/>
    </defs>
    <g fill="none" fill-rule="evenodd" transform="translate(5 4)">
        <use fill="#DADBE4" xlink:href="#a"/>
        <path d="M-5-4h24v24H-5z"/>
    </g>
</svg>
