<svg xmlns="http://www.w3.org/2000/svg" width="230" height="30" viewBox="0 0 230 30">
    <g fill="#FFF" fill-rule="evenodd">
        <path d="M154.896 18.769a.594.594 0 0 0-.32.685c.378 1.545 1.387 5.828 1.053 6.322-.39.612-1.582.612-2.18.612-.594 0-1.792 0-2.189-.612-.329-.494.68-4.778 1.059-6.323a.591.591 0 0 0-.313-.68c-.764-.363-1.939-1.47-1.939-3.11 0-1.99 1.343-3.388 3.294-3.43 1.59-.032 3.054 1.094 3.388 2.674.435 2.047-.974 3.442-1.853 3.862m-1.447-9.58c-6.963 0-8.753 6.07-8.753 10.115 0 4.051 1.79 10.115 8.753 10.115 6.96 0 8.745-6.064 8.745-10.115 0-4.045-1.785-10.115-8.745-10.115M14.89 21.205L5.147 4.29H2.502C1.165 4.29 0 5.454 0 6.929v21.985h4.871V11.998l9.81 16.916h5.084V4.29H14.89v16.914zM25.791 17.494c.093-2.6 1.621-3.854 3.55-3.854 2.352 0 3.375 1.436 3.548 3.854H25.79zm9.883-5.425c-1.531-1.714-3.689-2.57-6.474-2.57-2.645 0-4.708.882-6.193 2.641-1.44 1.714-2.158 4.092-2.158 7.138 0 3.188.742 5.638 2.229 7.35 1.483 1.76 3.549 2.642 6.19 2.642 2.182 0 3.992-.546 5.43-1.643 1.439-1.044 2.41-2.567 2.926-4.567h-3.481c-1.04 0-1.43.542-1.81.928-.38.386-1.45 1.142-2.784 1.142-1.208 0-2.11-.38-2.715-1.142-.65-.712-.998-1.807-1.043-3.283h12.04c.1-.215.068-1.046.068-1.285 0-3.14-.742-5.592-2.225-7.351zM106.675 17.494c.094-2.6 1.621-3.854 3.548-3.854 2.354 0 3.377 1.436 3.549 3.854h-7.097zm9.882-5.425c-1.53-1.714-3.688-2.57-6.472-2.57-2.646 0-4.709.882-6.196 2.641-1.437 1.714-2.156 4.092-2.156 7.138 0 3.188.742 5.638 2.229 7.35 1.482 1.76 3.549 2.642 6.19 2.642 2.182 0 3.992-.546 5.43-1.643 1.439-1.044 2.41-2.567 2.926-4.567h-3.481c-1.042 0-1.431.542-1.81.928-.38.386-1.45 1.142-2.785 1.142-1.208 0-2.11-.38-2.714-1.142-.651-.712-.998-1.807-1.043-3.283h12.04c.1-.215.068-1.046.068-1.285 0-3.14-.742-5.592-2.226-7.351zM44.03 12.425V6.788c0-1.35-1.064-2.426-2.364-2.426H39.3v24.551h4.73v-9.78c0-2.927 1.147-5.351 4.037-5.351 2.697 0 3.828 2.53 3.828 5.28v9.851h4.663V17.85c0-2.188-.443-3.9-1.322-5.14-1.45-2.031-3.498-3.223-5.849-3.223-2.272 0-4.171.914-5.356 2.938M66.074 9.5c-6.04.286-7.936 3.609-7.936 8.278v11.135h4.87V16.78c0-2.208 1.452-3.282 3.2-3.282 1.75 0 3.274 1.062 3.274 3.282v9.705c0 1.425.963 2.428 2.366 2.428h2.436V17.778c0-4.834-2.074-8.278-8.21-8.278M135.717 9.5c-6.04 0-7.936 3.609-7.936 8.278v11.135h4.87V16.78c0-2.208 1.452-3.282 3.202-3.282 1.749 0 3.273 1.062 3.273 3.282v9.705c0 1.425.964 2.428 2.365 2.428h2.437V17.778c0-4.834-2.171-8.278-8.211-8.278M87.019 12.355v9.706c0 2.189-1.502 3.284-3.27 3.284-1.694 0-3.204-1.021-3.204-3.284V9.927h-4.87v11.135c0 4.328 1.721 8.208 7.934 8.208 6.215 0 8.212-3.316 8.212-8.208V9.927h-2.437c-1.424 0-2.365 1.117-2.365 2.428M98.253 23.982V13.42h.488c1.262 0 2.366-.955 2.366-2.428v-.998h-2.854v-3.21c0-1.367-1.106-2.429-2.297-2.429H93.45V25.34c0 2.188.873 3.57 2.665 3.57h4.99v-3.712h-1.462c-.927 0-1.391-.406-1.391-1.215M185.819 23.982V13.42h.487c1.261 0 2.367-.955 2.367-2.428v-.998h-2.854v-3.21c0-1.367-1.106-2.429-2.297-2.429h-2.506V25.34c0 2.188.874 3.57 2.666 3.57 1.853 0 3.444.005 4.99 0v-3.712h-1.462c-.927 0-1.391-.406-1.391-1.215M171.756 16.898c-2.013-.5-3.617-.743-3.617-1.927 0-1.184 1.894-1.842 3.138-1.842 1.492 0 2.659.53 3.128 1.007.627.637.9 1.547 2.238 1.547h2.074c-.092-1.9-.811-3.447-2.158-4.636-1.438-1.096-3.364-1.642-5.773-1.642-2.226 0-4.037.546-5.427 1.642-1.35 1.188-2.019 2.687-2.019 4.495 0 1.428.46 2.57 1.388 3.426.839.856 2.743 1.62 4.942 2.212 2.17.583 4.798.745 4.798 2.083 0 1.336-1.888 2.134-3.397 2.134s-3.419-.973-3.419-2.861h-4.336c0 1.995.447 3.72 2.02 4.996 1.297 1.096 2.871 1.643 5.517 1.643 2.785 0 4.875-.523 6.262-1.573 1.486-1.14 2.23-2.522 2.23-4.618 0-1.425-.286-2.61-1.32-3.66-1.032-1.05-4.256-1.924-6.269-2.426M207.485 19.85c-1.53-.382-2.748-.564-2.748-1.465 0-.899 1.44-1.398 2.385-1.398 1.132 0 2.02.401 2.375.765.475.483.685 1.174 1.7 1.174h1.575c-.07-1.444-.615-2.618-1.638-3.522-1.094-.831-2.556-1.248-4.386-1.248-1.692 0-3.067.417-4.122 1.247-1.027.905-1.534 2.043-1.534 3.416 0 1.085.35 1.952 1.054 2.602.637.652 2.084 1.232 3.754 1.68 1.65.443 3.644.568 3.644 1.582 0 1.015-1.433 1.623-2.58 1.623-1.145 0-2.597-.74-2.597-2.175h-3.292c0 1.516.338 2.827 1.533 3.796.985.832 2.181 1.248 4.191 1.248 2.116 0 3.703-.397 4.756-1.195 1.13-.866 1.695-1.916 1.695-3.507 0-1.085-.218-1.984-1.002-2.781-.785-.797-3.232-1.462-4.763-1.843M193.14 9.928h-2.505v18.985h4.87V12.355c0-1.335-1.064-2.427-2.364-2.427M193.14 4.361h-2.505v3.926h4.87V6.789c0-1.331-1.057-2.428-2.364-2.428M197.083 27.048v1.866h2.945v-3.018h-1.818c-.752 0-1.127.384-1.127 1.152M221.833 19.914l5.083-5.601h-4.495l-4.547 5.38v-7.85c0-.906-.779-1.812-1.823-1.812h-1.926v18.884h3.749V23.37c0-.293.187-.512.583-.658.396-.146.859.275 1.395 1.263l2.62 4.94h4.496l-5.135-9.001zM125.494 6.716c0-1.37-1.09-2.355-2.367-2.355h-2.505v24.552h4.872V6.716zM129.677 1.153c1.635 1.386 2.181 4.712-1.09 8.037l-2.18-1.664c1.636-1.385 1.362-4.432.273-5.819l2.997-.554z"/>
    </g>
</svg>
